<svg width="18" height="16" viewBox="0 0 18 16" fill="none" xmlns="http://www.w3.org/2000/svg">
<path d="M12.2 15V13.4444C12.2 12.6193 11.8629 11.828 11.2627 11.2446C10.6626 10.6611 9.84869 10.3333 9 10.3333H4.2C3.35131 10.3333 2.53737 10.6611 1.93726 11.2446C1.33714 11.828 1 12.6193 1 13.4444V15M17 15V13.4444C16.9995 12.7551 16.7635 12.0855 16.3291 11.5407C15.8947 10.9959 15.2865 10.6068 14.6 10.4344M12.2 1.10111C12.8883 1.27246 13.4984 1.66166 13.9341 2.20735C14.3698 2.75305 14.6063 3.4242 14.6063 4.115C14.6063 4.8058 14.3698 5.47695 13.9341 6.02265C13.4984 6.56834 12.8883 6.95754 12.2 7.12889M9.8 4.11111C9.8 5.82933 8.36731 7.22222 6.6 7.22222C4.83269 7.22222 3.4 5.82933 3.4 4.11111C3.4 2.39289 4.83269 1 6.6 1C8.36731 1 9.8 2.39289 9.8 4.11111Z" stroke="#4D4D4D" stroke-width="1.66667" stroke-linecap="round" stroke-linejoin="round"/>
</svg>
